<svg xmlns="http://www.w3.org/2000/svg" xmlns:xlink="http://www.w3.org/1999/xlink" width="50" zoomAndPan="magnify" viewBox="0 0 37.5 37.499999" height="50" preserveAspectRatio="xMidYMid meet" version="1.0"><defs><clipPath id="5b79ca3980"><path d="M 8.101562 8.640625 L 27.34375 8.640625 L 27.34375 26.402344 L 8.101562 26.402344 Z M 8.101562 8.640625 " clip-rule="nonzero"/></clipPath></defs><g clip-path="url(#5b79ca3980)"><path fill="#1800ad" d="M 20.574219 8.636719 L 25.074219 8.636719 C 25.671875 8.636719 26.210938 8.878906 26.601562 9.273438 C 26.992188 9.664062 27.234375 10.203125 27.234375 10.796875 L 27.234375 16.640625 C 27.234375 17.234375 26.992188 17.773438 26.601562 18.164062 C 26.210938 18.554688 25.667969 18.800781 25.074219 18.800781 L 20.574219 18.800781 C 19.976562 18.800781 19.4375 18.554688 19.046875 18.164062 C 18.65625 17.773438 18.414062 17.234375 18.414062 16.640625 L 18.414062 10.796875 C 18.414062 10.203125 18.65625 9.664062 19.046875 9.273438 C 19.4375 8.882812 19.976562 8.636719 20.574219 8.636719 Z M 10.265625 13.605469 L 14.769531 13.605469 C 15.117188 13.605469 15.429688 13.460938 15.660156 13.234375 C 15.890625 13.003906 16.03125 12.6875 16.03125 12.34375 L 16.03125 10.796875 C 16.03125 10.449219 15.890625 10.136719 15.660156 9.90625 C 15.429688 9.675781 15.113281 9.535156 14.769531 9.535156 L 10.265625 9.535156 C 9.917969 9.535156 9.601562 9.675781 9.375 9.90625 C 9.144531 10.136719 9.003906 10.449219 9.003906 10.796875 L 9.003906 12.34375 C 9.003906 12.6875 9.144531 13.003906 9.375 13.234375 C 9.601562 13.460938 9.917969 13.605469 10.265625 13.605469 Z M 14.769531 14.503906 L 10.265625 14.503906 C 9.671875 14.503906 9.132812 14.257812 8.738281 13.867188 C 8.347656 13.476562 8.105469 12.9375 8.105469 12.34375 L 8.105469 10.796875 C 8.105469 10.203125 8.347656 9.664062 8.738281 9.273438 C 9.132812 8.882812 9.671875 8.636719 10.265625 8.636719 L 14.769531 8.636719 C 15.363281 8.636719 15.902344 8.882812 16.292969 9.273438 C 16.683594 9.664062 16.929688 10.203125 16.929688 10.796875 L 16.929688 12.34375 C 16.929688 12.9375 16.683594 13.476562 16.292969 13.867188 C 15.902344 14.257812 15.363281 14.503906 14.769531 14.503906 Z M 10.265625 25.246094 L 14.769531 25.246094 C 15.117188 25.246094 15.429688 25.105469 15.660156 24.875 C 15.890625 24.648438 16.03125 24.332031 16.03125 23.984375 L 16.03125 18.144531 C 16.03125 17.796875 15.890625 17.480469 15.660156 17.25 C 15.429688 17.023438 15.117188 16.878906 14.769531 16.878906 L 10.265625 16.878906 C 9.917969 16.878906 9.601562 17.023438 9.375 17.25 C 9.144531 17.480469 9.003906 17.796875 9.003906 18.144531 L 9.003906 23.984375 C 9.003906 24.332031 9.144531 24.648438 9.375 24.875 C 9.601562 25.105469 9.917969 25.246094 10.265625 25.246094 Z M 14.769531 26.144531 L 10.265625 26.144531 C 9.671875 26.144531 9.132812 25.902344 8.738281 25.511719 C 8.347656 25.121094 8.105469 24.578125 8.105469 23.984375 L 8.105469 18.144531 C 8.105469 17.546875 8.347656 17.007812 8.738281 16.617188 C 9.132812 16.226562 9.671875 15.984375 10.265625 15.984375 L 14.769531 15.984375 C 15.363281 15.984375 15.902344 16.226562 16.292969 16.617188 C 16.683594 17.007812 16.929688 17.546875 16.929688 18.144531 L 16.929688 23.984375 C 16.929688 24.578125 16.683594 25.121094 16.292969 25.511719 C 15.902344 25.902344 15.363281 26.144531 14.769531 26.144531 Z M 20.574219 20.28125 L 25.078125 20.28125 C 25.671875 20.28125 26.210938 20.523438 26.601562 20.914062 C 26.992188 21.304688 27.238281 21.847656 27.238281 22.441406 L 27.238281 23.984375 C 27.238281 24.578125 26.992188 25.121094 26.601562 25.511719 C 26.210938 25.902344 25.671875 26.144531 25.078125 26.144531 L 20.574219 26.144531 C 19.980469 26.144531 19.4375 25.902344 19.046875 25.511719 C 18.65625 25.117188 18.414062 24.578125 18.414062 23.984375 L 18.414062 22.441406 C 18.414062 21.84375 18.65625 21.304688 19.046875 20.914062 C 19.4375 20.523438 19.980469 20.28125 20.574219 20.28125 Z M 25.078125 21.175781 L 20.574219 21.175781 C 20.226562 21.175781 19.910156 21.320312 19.683594 21.546875 C 19.453125 21.777344 19.3125 22.09375 19.3125 22.441406 L 19.3125 23.984375 C 19.3125 24.332031 19.453125 24.648438 19.683594 24.875 C 19.910156 25.105469 20.226562 25.246094 20.574219 25.246094 L 25.078125 25.246094 C 25.421875 25.246094 25.738281 25.105469 25.96875 24.875 C 26.199219 24.648438 26.339844 24.332031 26.339844 23.984375 L 26.339844 22.441406 C 26.339844 22.09375 26.195312 21.777344 25.96875 21.546875 C 25.738281 21.320312 25.421875 21.175781 25.078125 21.175781 Z M 25.078125 9.535156 L 20.574219 9.535156 C 20.226562 9.535156 19.910156 9.675781 19.683594 9.90625 C 19.453125 10.136719 19.3125 10.449219 19.3125 10.796875 L 19.3125 16.640625 C 19.3125 16.988281 19.453125 17.300781 19.683594 17.53125 C 19.910156 17.761719 20.226562 17.902344 20.574219 17.902344 L 25.078125 17.902344 C 25.421875 17.902344 25.738281 17.761719 25.96875 17.53125 C 26.199219 17.300781 26.339844 16.988281 26.339844 16.640625 L 26.339844 10.796875 C 26.339844 10.449219 26.195312 10.136719 25.96875 9.90625 C 25.738281 9.675781 25.421875 9.535156 25.078125 9.535156 Z M 25.078125 9.535156 " fill-opacity="1" fill-rule="nonzero"/></g></svg>