<svg xmlns="http://www.w3.org/2000/svg" xmlns:xlink="http://www.w3.org/1999/xlink" width="80" zoomAndPan="magnify" viewBox="0 0 60 30.000001" height="40" preserveAspectRatio="xMidYMid meet" version="1.0"><defs><g/><clipPath id="56bb1eafe1"><path d="M 7.722656 8.886719 L 20.0625 8.886719 L 20.0625 20.5 L 7.722656 20.5 Z M 7.722656 8.886719 " clip-rule="nonzero"/></clipPath><clipPath id="0bad8bbeba"><rect x="0" width="34" y="0" height="11"/></clipPath></defs><g clip-path="url(#56bb1eafe1)"><path fill="#ffffff" d="M 15.738281 8.886719 L 18.628906 8.886719 C 19.011719 8.886719 19.359375 9.042969 19.609375 9.292969 C 19.859375 9.546875 20.015625 9.894531 20.015625 10.273438 L 20.015625 14.027344 C 20.015625 14.410156 19.863281 14.757812 19.609375 15.007812 C 19.359375 15.261719 19.011719 15.417969 18.628906 15.417969 L 15.738281 15.417969 C 15.355469 15.417969 15.007812 15.261719 14.757812 15.007812 C 14.503906 14.757812 14.347656 14.410156 14.347656 14.027344 L 14.347656 10.273438 C 14.347656 9.894531 14.503906 9.546875 14.757812 9.292969 C 15.007812 9.042969 15.355469 8.886719 15.738281 8.886719 Z M 9.113281 12.078125 L 12.007812 12.078125 C 12.230469 12.078125 12.433594 11.988281 12.578125 11.839844 C 12.726562 11.691406 12.820312 11.492188 12.820312 11.265625 L 12.820312 10.273438 C 12.820312 10.050781 12.726562 9.847656 12.578125 9.703125 C 12.433594 9.554688 12.230469 9.464844 12.007812 9.464844 L 9.113281 9.464844 C 8.890625 9.464844 8.6875 9.554688 8.539062 9.703125 C 8.394531 9.851562 8.300781 10.050781 8.300781 10.273438 L 8.300781 11.265625 C 8.300781 11.492188 8.394531 11.695312 8.539062 11.839844 C 8.6875 11.988281 8.890625 12.078125 9.113281 12.078125 Z M 12.007812 12.65625 L 9.113281 12.65625 C 8.730469 12.65625 8.386719 12.5 8.132812 12.246094 C 7.882812 11.996094 7.726562 11.648438 7.726562 11.265625 L 7.726562 10.273438 C 7.726562 9.894531 7.882812 9.546875 8.132812 9.292969 C 8.386719 9.042969 8.730469 8.886719 9.113281 8.886719 L 12.007812 8.886719 C 12.390625 8.886719 12.734375 9.042969 12.988281 9.292969 C 13.238281 9.546875 13.394531 9.894531 13.394531 10.273438 L 13.394531 11.265625 C 13.394531 11.648438 13.238281 11.996094 12.988281 12.246094 C 12.734375 12.5 12.386719 12.65625 12.007812 12.65625 Z M 9.113281 19.558594 L 12.007812 19.558594 C 12.230469 19.558594 12.433594 19.46875 12.578125 19.320312 C 12.726562 19.175781 12.820312 18.972656 12.820312 18.75 L 12.820312 14.996094 C 12.820312 14.773438 12.726562 14.570312 12.578125 14.421875 C 12.433594 14.273438 12.230469 14.183594 12.007812 14.183594 L 9.113281 14.183594 C 8.890625 14.183594 8.6875 14.273438 8.539062 14.421875 C 8.394531 14.570312 8.300781 14.773438 8.300781 14.996094 L 8.300781 18.75 C 8.300781 18.972656 8.394531 19.175781 8.539062 19.320312 C 8.6875 19.46875 8.890625 19.558594 9.113281 19.558594 Z M 12.007812 20.136719 L 9.113281 20.136719 C 8.730469 20.136719 8.386719 19.980469 8.132812 19.730469 C 7.882812 19.476562 7.726562 19.128906 7.726562 18.75 L 7.726562 14.996094 C 7.726562 14.613281 7.882812 14.265625 8.132812 14.015625 C 8.386719 13.761719 8.730469 13.605469 9.113281 13.605469 L 12.007812 13.605469 C 12.390625 13.605469 12.734375 13.761719 12.988281 14.015625 C 13.238281 14.265625 13.394531 14.613281 13.394531 14.996094 L 13.394531 18.75 C 13.394531 19.128906 13.238281 19.476562 12.988281 19.730469 C 12.734375 19.980469 12.390625 20.136719 12.007812 20.136719 Z M 15.738281 16.367188 L 18.628906 16.367188 C 19.011719 16.367188 19.359375 16.523438 19.609375 16.777344 C 19.863281 17.027344 20.019531 17.375 20.019531 17.753906 L 20.019531 18.75 C 20.019531 19.128906 19.863281 19.476562 19.609375 19.730469 C 19.359375 19.980469 19.011719 20.136719 18.628906 20.136719 L 15.738281 20.136719 C 15.355469 20.136719 15.007812 19.980469 14.757812 19.730469 C 14.503906 19.476562 14.347656 19.128906 14.347656 18.75 L 14.347656 17.753906 C 14.347656 17.375 14.503906 17.027344 14.757812 16.777344 C 15.007812 16.523438 15.355469 16.367188 15.738281 16.367188 Z M 18.628906 16.945312 L 15.738281 16.945312 C 15.515625 16.945312 15.3125 17.035156 15.164062 17.183594 C 15.015625 17.332031 14.925781 17.53125 14.925781 17.753906 L 14.925781 18.75 C 14.925781 18.972656 15.015625 19.175781 15.164062 19.320312 C 15.3125 19.46875 15.515625 19.558594 15.738281 19.558594 L 18.628906 19.558594 C 18.851562 19.558594 19.054688 19.46875 19.203125 19.320312 C 19.351562 19.171875 19.441406 18.972656 19.441406 18.75 L 19.441406 17.753906 C 19.441406 17.53125 19.351562 17.328125 19.203125 17.183594 C 19.054688 17.035156 18.851562 16.945312 18.628906 16.945312 Z M 18.628906 9.464844 L 15.738281 9.464844 C 15.515625 9.464844 15.3125 9.554688 15.164062 9.703125 C 15.015625 9.847656 14.925781 10.050781 14.925781 10.273438 L 14.925781 14.027344 C 14.925781 14.25 15.015625 14.453125 15.164062 14.601562 C 15.3125 14.75 15.515625 14.839844 15.738281 14.839844 L 18.628906 14.839844 C 18.851562 14.839844 19.054688 14.75 19.203125 14.601562 C 19.351562 14.453125 19.441406 14.25 19.441406 14.027344 L 19.441406 10.273438 C 19.441406 10.050781 19.351562 9.847656 19.203125 9.703125 C 19.054688 9.554688 18.851562 9.464844 18.628906 9.464844 Z M 18.628906 9.464844 " fill-opacity="1" fill-rule="nonzero"/></g><g transform="matrix(1, 0, 0, 1, 20, 9)"><g clip-path="url(#0bad8bbeba)"><g fill="#ffffff" fill-opacity="1"><g transform="translate(0.987435, 7.752183)"><g><path d="M 4.8125 0 L 3.609375 0 L 1.625 -3.015625 L 1.625 0 L 0.4375 0 L 0.4375 -4.890625 L 1.625 -4.890625 L 3.609375 -1.859375 L 3.609375 -4.890625 L 4.8125 -4.890625 Z M 4.8125 0 "/></g></g></g><g fill="#ffffff" fill-opacity="1"><g transform="translate(6.232374, 7.752183)"><g><path d="M 2.75 0.046875 C 2.289062 0.046875 1.867188 -0.0546875 1.484375 -0.265625 C 1.097656 -0.484375 0.789062 -0.78125 0.5625 -1.15625 C 0.34375 -1.539062 0.234375 -1.972656 0.234375 -2.453125 C 0.234375 -2.929688 0.34375 -3.363281 0.5625 -3.75 C 0.789062 -4.132812 1.097656 -4.429688 1.484375 -4.640625 C 1.867188 -4.859375 2.289062 -4.96875 2.75 -4.96875 C 3.207031 -4.96875 3.625 -4.859375 4 -4.640625 C 4.382812 -4.429688 4.6875 -4.132812 4.90625 -3.75 C 5.132812 -3.363281 5.25 -2.929688 5.25 -2.453125 C 5.25 -1.972656 5.132812 -1.539062 4.90625 -1.15625 C 4.6875 -0.78125 4.382812 -0.484375 4 -0.265625 C 3.625 -0.0546875 3.207031 0.046875 2.75 0.046875 Z M 2.75 -1.03125 C 3.132812 -1.03125 3.441406 -1.160156 3.671875 -1.421875 C 3.910156 -1.679688 4.03125 -2.023438 4.03125 -2.453125 C 4.03125 -2.890625 3.910156 -3.234375 3.671875 -3.484375 C 3.441406 -3.742188 3.132812 -3.875 2.75 -3.875 C 2.351562 -3.875 2.035156 -3.742188 1.796875 -3.484375 C 1.566406 -3.234375 1.453125 -2.890625 1.453125 -2.453125 C 1.453125 -2.023438 1.566406 -1.679688 1.796875 -1.421875 C 2.035156 -1.160156 2.351562 -1.03125 2.75 -1.03125 Z M 2.75 -1.03125 "/></g></g></g><g fill="#ffffff" fill-opacity="1"><g transform="translate(11.714451, 7.752183)"><g><path d="M 0.234375 -2.453125 C 0.234375 -2.929688 0.335938 -3.359375 0.546875 -3.734375 C 0.753906 -4.117188 1.046875 -4.414062 1.421875 -4.625 C 1.796875 -4.84375 2.21875 -4.953125 2.6875 -4.953125 C 3.269531 -4.953125 3.765625 -4.796875 4.171875 -4.484375 C 4.585938 -4.179688 4.867188 -3.765625 5.015625 -3.234375 L 3.703125 -3.234375 C 3.597656 -3.441406 3.457031 -3.597656 3.28125 -3.703125 C 3.101562 -3.804688 2.898438 -3.859375 2.671875 -3.859375 C 2.304688 -3.859375 2.007812 -3.726562 1.78125 -3.46875 C 1.550781 -3.21875 1.4375 -2.878906 1.4375 -2.453125 C 1.4375 -2.023438 1.550781 -1.679688 1.78125 -1.421875 C 2.007812 -1.171875 2.304688 -1.046875 2.671875 -1.046875 C 2.898438 -1.046875 3.101562 -1.097656 3.28125 -1.203125 C 3.457031 -1.304688 3.597656 -1.460938 3.703125 -1.671875 L 5.015625 -1.671875 C 4.867188 -1.140625 4.585938 -0.722656 4.171875 -0.421875 C 3.765625 -0.117188 3.269531 0.03125 2.6875 0.03125 C 2.21875 0.03125 1.796875 -0.0703125 1.421875 -0.28125 C 1.046875 -0.488281 0.753906 -0.78125 0.546875 -1.15625 C 0.335938 -1.539062 0.234375 -1.972656 0.234375 -2.453125 Z M 0.234375 -2.453125 "/></g></g></g><g fill="#ffffff" fill-opacity="1"><g transform="translate(17.029136, 7.752183)"><g/></g></g><g fill="#ffffff" fill-opacity="1"><g transform="translate(18.507762, 7.752183)"><g><path d="M 3.484375 -0.859375 L 1.65625 -0.859375 L 1.359375 0 L 0.109375 0 L 1.875 -4.890625 L 3.265625 -4.890625 L 5.03125 0 L 3.765625 0 Z M 3.171875 -1.78125 L 2.5625 -3.578125 L 1.96875 -1.78125 Z M 3.171875 -1.78125 "/></g></g></g><g fill="#ffffff" fill-opacity="1"><g transform="translate(23.64808, 7.752183)"><g><path d="M 1.625 -3.34375 C 1.738281 -3.519531 1.894531 -3.660156 2.09375 -3.765625 C 2.300781 -3.878906 2.546875 -3.9375 2.828125 -3.9375 C 3.140625 -3.9375 3.425781 -3.851562 3.6875 -3.6875 C 3.945312 -3.53125 4.148438 -3.300781 4.296875 -3 C 4.453125 -2.695312 4.53125 -2.347656 4.53125 -1.953125 C 4.53125 -1.554688 4.453125 -1.203125 4.296875 -0.890625 C 4.148438 -0.585938 3.945312 -0.351562 3.6875 -0.1875 C 3.425781 -0.0195312 3.140625 0.0625 2.828125 0.0625 C 2.554688 0.0625 2.316406 0.00390625 2.109375 -0.109375 C 1.898438 -0.222656 1.738281 -0.367188 1.625 -0.546875 L 1.625 1.859375 L 0.4375 1.859375 L 0.4375 -3.890625 L 1.625 -3.890625 Z M 3.328125 -1.953125 C 3.328125 -2.242188 3.242188 -2.472656 3.078125 -2.640625 C 2.910156 -2.816406 2.707031 -2.90625 2.46875 -2.90625 C 2.226562 -2.90625 2.023438 -2.816406 1.859375 -2.640625 C 1.691406 -2.472656 1.609375 -2.238281 1.609375 -1.9375 C 1.609375 -1.644531 1.691406 -1.410156 1.859375 -1.234375 C 2.023438 -1.066406 2.226562 -0.984375 2.46875 -0.984375 C 2.707031 -0.984375 2.910156 -1.066406 3.078125 -1.234375 C 3.242188 -1.410156 3.328125 -1.648438 3.328125 -1.953125 Z M 3.328125 -1.953125 "/></g></g></g><g fill="#ffffff" fill-opacity="1"><g transform="translate(28.383869, 7.752183)"><g><path d="M 1.625 -3.34375 C 1.738281 -3.519531 1.894531 -3.660156 2.09375 -3.765625 C 2.300781 -3.878906 2.546875 -3.9375 2.828125 -3.9375 C 3.140625 -3.9375 3.425781 -3.851562 3.6875 -3.6875 C 3.945312 -3.53125 4.148438 -3.300781 4.296875 -3 C 4.453125 -2.695312 4.53125 -2.347656 4.53125 -1.953125 C 4.53125 -1.554688 4.453125 -1.203125 4.296875 -0.890625 C 4.148438 -0.585938 3.945312 -0.351562 3.6875 -0.1875 C 3.425781 -0.0195312 3.140625 0.0625 2.828125 0.0625 C 2.554688 0.0625 2.316406 0.00390625 2.109375 -0.109375 C 1.898438 -0.222656 1.738281 -0.367188 1.625 -0.546875 L 1.625 1.859375 L 0.4375 1.859375 L 0.4375 -3.890625 L 1.625 -3.890625 Z M 3.328125 -1.953125 C 3.328125 -2.242188 3.242188 -2.472656 3.078125 -2.640625 C 2.910156 -2.816406 2.707031 -2.90625 2.46875 -2.90625 C 2.226562 -2.90625 2.023438 -2.816406 1.859375 -2.640625 C 1.691406 -2.472656 1.609375 -2.238281 1.609375 -1.9375 C 1.609375 -1.644531 1.691406 -1.410156 1.859375 -1.234375 C 2.023438 -1.066406 2.226562 -0.984375 2.46875 -0.984375 C 2.707031 -0.984375 2.910156 -1.066406 3.078125 -1.234375 C 3.242188 -1.410156 3.328125 -1.648438 3.328125 -1.953125 Z M 3.328125 -1.953125 "/></g></g></g></g></g></svg>